# xmcd CD database file
#
# Track frame offsets:
#	150
#	18945
#	36317
#	53922
#	69950
#	90120
#	111010
#	124265
#	136127
#	152212
#	170422
#	188057
#
# Disc length: 2787 seconds
#
# Revision: 0
# Processed by: cddbd v1.5PL3 Copyright (c) Steve Scherf et al.
# Submitted via: CDex 1.51
#
DISCID=930ae10c
DTITLE=ABEX GO GO - ABEX GO GO
DYEAR=1997
DGENRE=Rock and Roll
TTITLE0=ABEX
TTITLE1=Telephone Sex
TTITLE2=雨降り
TTITLE3=ドライブしよう
TTITLE4=VISITOR
TTITLE5=夕立ち
TTITLE6=おせわになりました
TTITLE7=TOY JUMP
TTITLE8=Blamer
TTITLE9=春は無罪
TTITLE10=BREAK THROUGH
TTITLE11=あいのうた
EXTD=YEAR: 1997
EXTT0=
EXTT1=
EXTT2=
EXTT3=
EXTT4=
EXTT5=
EXTT6=
EXTT7=
EXTT8=
EXTT9=
EXTT10=
EXTT11=
PLAYORDER=
